<svg width="34" height="23" fill="none" xmlns="http://www.w3.org/2000/svg"><path fill-rule="evenodd" clip-rule="evenodd" d="m9.63.144 1.477.894c.26.158.32.51.128.747C9.08 4.44 7.122 7.316 7.122 10.883c2.941 0 5.973 2.423 5.973 5.525 0 4.334-3.484 7.033-6.969 6.531-3.484-.502-5.545-3.014-5.972-6.028C-.826 9.999 2.986 3.774 8.599.15A.973.973 0 0 1 9.631.145Zm20.906 0 1.476.894c.26.158.32.51.128.747-2.155 2.654-4.113 5.531-4.113 9.098 2.942 0 5.973 2.423 5.973 5.525 0 4.334-3.484 7.033-6.968 6.531-3.485-.502-5.546-3.014-5.973-6.028-.98-6.912 2.832-13.137 8.446-16.76a.973.973 0 0 1 1.031-.007Z" fill="url(#a)"/><defs><linearGradient id="a" x1="1.927" y1="0" x2="19.702" y2="29.018" gradientUnits="userSpaceOnUse"><stop offset=".259" stop-color="#FFDB6E"/><stop offset="1" stop-color="#FFBC5E"/></linearGradient></defs></svg>