<svg width="40" height="40" viewBox="0 0 22 40" fill="none" xmlns="http://www.w3.org/2000/svg"><path opacity=".15" fill-rule="evenodd" clip-rule="evenodd" d="M3 1a2 2 0 0 0-2 2v34a2 2 0 0 0 2 2h15.9a2 2 0 0 0 2-2V3a2 2 0 0 0-2-2h-3.237v1H6.237V1H3Z" fill="url(#a)"/><path d="M8.509 35.675a.676.676 0 1 0 0 1.352v-1.352Zm4.954 1.352a.676.676 0 0 0 0-1.352v1.352ZM.4 29.414a.676.676 0 0 0 1.353 0H.4Zm1.353 2.973a.676.676 0 1 0-1.353 0h1.353ZM20.219 7.613a.676.676 0 1 0 1.353 0h-1.353Zm1.353 2.973a.676.676 0 0 0-1.353 0h1.353ZM18.48 38.647H3.492V40H18.48v-1.353ZM3.492 1.353h3.035V0H3.492v1.353Zm2.358.34h1.353V.675H5.85v1.016Zm1.643 1.642h6.986V1.982H7.493v1.353Zm-.966-1.982h8.918V0H6.527v1.353Zm8.918 0h3.035V0h-3.035v1.353Zm.677.34V.675h-1.353v1.016h1.353ZM8.509 37.026h4.954v-1.352H8.51v1.352Zm-6.756-7.613V3.092H.4v26.322h1.353Zm0 7.494v-4.521H.4v4.521h1.353ZM20.219 3.092v4.521h1.353V3.092h-1.353Zm0 7.494v26.322h1.353V10.586h-1.353Zm-5.74-7.251c.907 0 1.643-.736 1.643-1.643h-1.353c0 .16-.13.29-.29.29v1.353ZM3.492 38.647a1.74 1.74 0 0 1-1.74-1.739H.4A3.092 3.092 0 0 0 3.492 40v-1.353ZM18.48 40a3.092 3.092 0 0 0 3.092-3.092h-1.353c0 .96-.779 1.74-1.739 1.74V40Zm0-38.647c.96 0 1.74.778 1.74 1.739h1.352A3.092 3.092 0 0 0 18.48 0v1.353Zm-12.63.34c0 .906.736 1.642 1.643 1.642V1.982a.29.29 0 0 1-.29-.29H5.85ZM3.492 0A3.092 3.092 0 0 0 .4 3.092h1.353c0-.96.778-1.74 1.739-1.74V0Z" fill="url(#b)"/><defs><linearGradient id="a" x1="2.128" y1="1" x2="30.702" y2="17.524" gradientUnits="userSpaceOnUse"><stop offset=".259" stop-color="#FFDB6E"/><stop offset="1" stop-color="#FFBC5E"/></linearGradient><linearGradient id="b" x1="1.6" y1="0" x2="31.837" y2="17.673" gradientUnits="userSpaceOnUse"><stop offset=".259" stop-color="#FFDB6E"/><stop offset="1" stop-color="#FFBC5E"/></linearGradient></defs></svg>